<svg width="634" height="311" viewBox="0 0 634 311" fill="none" xmlns="http://www.w3.org/2000/svg">
<path d="M201 31.1082C217.667 30.1082 253.4 35.7082 263 66.1082C272.6 96.5082 255 95.5216 252.5 94.5692C242 90.5692 239.2 72.3082 284 49.1082C328.8 25.9082 386.5 38.0692 420 60.1082C471.807 94.1908 586.5 157.569 633 142.108" stroke="#FFB2B2" stroke-linecap="round" stroke-linejoin="round"/>
<path d="M171.004 224.81V293.606L175.544 303.383H144.415L134.336 207L171.004 224.81Z" fill="#E2E2E2"/>
<path d="M164.088 124.582L115.763 121.781V174.171V303.381H148.431L144.415 296.185L164.088 124.582Z" fill="#EDEEEF"/>
<path d="M143.195 58.2124L153.466 55.688C158.313 54.4968 161.72 50.151 161.72 45.1603V40.7773" stroke="#39364F" stroke-linecap="round" stroke-linejoin="round"/>
<path d="M144.415 45.2686C142.985 45.2686 141.826 44.1095 141.826 42.6797" stroke="#39364F" stroke-linecap="round" stroke-linejoin="round"/>
<path d="M154.54 47.2305C154.219 47.552 153.783 47.7326 153.328 47.7326C152.873 47.7326 152.437 47.552 152.116 47.2305" stroke="#39364F" stroke-linecap="round" stroke-linejoin="round"/>
<path d="M144.415 41.9915C145.663 41.9915 147.008 39.1978 147.444 35.7056C147.881 32.2134 153.381 32.5626 157.222 32.3007C161.064 32.0388 161.349 36.2799 161.349 36.2799C161.349 37.2473 161.349 39.5645 161.349 41.094" stroke="#39364F" stroke-linecap="round" stroke-linejoin="round"/>
<path d="M161.719 41.3178C161.719 41.3178 175.32 16.6745 151.255 14.9284C127.189 13.1824 115.864 45.0776 143.12 49.9666" stroke="#39364F" stroke-linecap="round" stroke-linejoin="round"/>
<path d="M115.762 84.9893V125.44L173.066 139.525V94.4733C173.066 78.4989 162.161 64.5883 146.648 60.7756H146.648C139.209 58.9471 131.342 60.6399 125.313 65.3664C119.284 70.0929 115.762 77.3285 115.762 84.9893V84.9893Z" fill="#BDB0EB"/>
<path d="M115.762 125.441L173.066 139.526V228.127L85.9764 214.412L115.762 125.441Z" fill="#FFE68D"/>
<path d="M148.431 303.383L144.415 296.187L155.482 199.648" stroke="#39364F" stroke-linecap="round" stroke-linejoin="round"/>
<path d="M123.981 66.4883C123.981 66.4883 96.6198 90.1249 114.546 123.184C132.473 156.243 190.21 108.983 190.909 105.258C191.607 101.533 185.554 100.601 180.432 103.395C180.432 103.395 181.13 99.5829 178.337 100.674C175.543 101.766 174.146 105.025 174.146 105.025L134.801 106.655L139.925 85.0031" stroke="#39364F" stroke-linecap="round" stroke-linejoin="round"/>
<path d="M161.05 105.569L178.337 60.043L217.915 70.8034L193.47 125.44L171.599 121.008" stroke="#39364F" stroke-linecap="round" stroke-linejoin="round"/>
<path d="M165.291 124.809V124.809C165.291 124.809 143.215 153.443 110.576 140.933L115.869 125.377C126.498 141.191 148.012 134.555 165.291 124.809Z" fill="#39364F"/>
<path d="M161.349 68.4727L171.626 77.7163" stroke="#39364F" stroke-linecap="round" stroke-linejoin="round"/>
<path d="M208.541 91.7539C208.541 91.7539 215.005 116.026 199.639 126.328C184.274 136.63 173.067 128.947 173.067 128.947" stroke="#39364F" stroke-linecap="round" stroke-linejoin="round"/>
<circle cx="539.5" cy="168.5" r="2.5" fill="#BDB0EB"/>
<circle cx="355.5" cy="2.5" r="2.5" fill="#FFD447"/>
<circle cx="373.5" cy="17.5" r="3.5" fill="#BDB0EB"/>
<g clip-path="url(#clip0_1250:9631)">
<path d="M440.235 88.1753C447.356 87.9047 451.801 86.1631 453.566 82.9496C456.215 78.1295 454.609 77.2465 453.002 76.3636C451.395 75.4807 448.779 76.3128 447.14 79.4179C445.386 82.7385 447.263 85.5044 447.625 88.0521C448.269 92.59 449.434 94.2763 452.365 92.7491C454.32 91.7313 455.859 90.8344 456.983 90.0567C456.53 94.6881 457.641 97.7401 460.319 99.2119L464.336 101.419" stroke="#10A3BF" stroke-linecap="round" stroke-linejoin="round"/>
<path d="M469.315 99.9711L479.91 80.6905C480.9 78.8893 480.264 76.7009 478.462 75.7112C476.661 74.7214 474.473 75.3576 473.483 77.1588L462.888 96.4394L464.336 101.419L469.315 99.9711Z" stroke="#10A3BF" stroke-linecap="round" stroke-linejoin="round"/>
<path d="M471.718 80.375L478.145 83.9067" stroke="#10A3BF" stroke-linecap="round" stroke-linejoin="round"/>
</g>
<defs>
<clipPath id="clip0_1250:9631">
<rect width="44" height="44" fill="white" transform="translate(452.19 55) rotate(28.7897)"/>
</clipPath>
</defs>
</svg>
