
<svg width="24" height="24" viewBox="0 0 24 24" fill="none" xmlns="http://www.w3.org/2000/svg">
<path d="M10.0591 16.0001C9.06316 15.2305 8.32751 14.1576 7.95632 12.9333C7.58513 11.709 7.59723 10.3955 7.9909 9.17865C8.38457 7.96184 9.13985 6.9035 10.1498 6.15353C11.1597 5.40357 12.373 5 13.6179 5C14.8628 5 16.0761 5.40357 17.086 6.15353C18.0959 6.9035 18.8512 7.96184 19.2449 9.17865C19.6386 10.3955 19.6507 11.709 19.2795 12.9333C18.9083 14.1576 18.1726 15.2305 17.1767 16.0001C16.7136 16.4725 16.3648 17.0506 16.1587 17.6876C15.9527 18.3246 15.895 19.0026 15.9904 19.6668C15.9904 20.3151 15.7405 20.9369 15.2955 21.3953C14.8506 21.8537 14.2471 22.1113 13.6179 22.1113C12.9887 22.1113 12.3852 21.8537 11.9403 21.3953C11.4953 20.9369 11.2453 20.3151 11.2453 19.6668C11.3408 19.0026 11.2831 18.3246 11.077 17.6876C10.871 17.0506 10.5222 16.4725 10.0591 16.0001Z" fill="#FFDC6B"/>
<path d="M19.9161 4.17781L19.0857 5.03337M1.64746 12.0001H2.83374H1.64746ZM12.3239 1V2.22223V1ZM21.8141 12.0001H23.0004H21.8141ZM4.73177 4.17781L5.56217 5.03337L4.73177 4.17781Z" stroke="#FFDC6B" stroke-opacity="0.4" stroke-width="2" stroke-linecap="round" stroke-linejoin="round"/>
<path d="M17.3035 10.0693C16.9098 8.85247 16.1545 7.79412 15.1446 7.04416C14.1347 6.29419 12.9214 5.89062 11.6765 5.89062C10.4316 5.89063 9.21826 6.29419 8.20836 7.04416C7.19845 7.79412 6.44317 8.85247 6.0495 10.0693C5.65583 11.2861 5.64373 12.5997 6.01491 13.8239C6.3861 15.0482 7.12175 16.1212 8.11767 16.8907C8.58083 17.3631 8.92956 17.9412 9.13564 18.5782C9.34173 19.2152 9.39938 19.8932 9.30394 20.5574C9.30394 21.2057 9.55391 21.8275 9.99884 22.2859C10.4438 22.7444 11.0473 23.0019 11.6765 23.0019C12.3057 23.0019 12.9092 22.7444 13.3541 22.2859C13.7991 21.8275 14.049 21.2057 14.049 20.5574C13.9536 19.8932 14.0113 19.2152 14.2173 18.5782C14.4234 17.9412 14.7722 17.3631 15.2353 16.8907C16.2312 16.1212 16.9669 15.0482 17.3381 13.8239" stroke="#39364F" stroke-linecap="round" stroke-linejoin="round"/>
<path d="M8.94824 18.1133H14.4051" stroke="#39364F" stroke-linecap="round" stroke-linejoin="round"/>
<path d="M19.2686 4.17781L18.4382 5.03337M1 12.0001H2.18627H1ZM11.6765 1V2.22223V1ZM21.1667 12.0001H22.3529H21.1667ZM4.08431 4.17781L4.91471 5.03337L4.08431 4.17781Z" stroke="#39364F" stroke-linecap="round" stroke-linejoin="round"/>
</svg>
