<svg width="38" height="38" viewBox="0 0 38 38" fill="none" xmlns="http://www.w3.org/2000/svg">
<path d="M14.2503 7.91797H11.0837C10.2438 7.91797 9.43835 8.2516 8.84449 8.84546C8.25062 9.43933 7.91699 10.2448 7.91699 11.0846V30.0846C7.91699 30.9245 8.25062 31.7299 8.84449 32.3238C9.43835 32.9177 10.2438 33.2513 11.0837 33.2513H26.917C27.7568 33.2513 28.5623 32.9177 29.1562 32.3238C29.75 31.7299 30.0837 30.9245 30.0837 30.0846V11.0846C30.0837 10.2448 29.75 9.43933 29.1562 8.84546C28.5623 8.2516 27.7568 7.91797 26.917 7.91797H23.7503" stroke="#D3EFF4" stroke-width="2" stroke-linecap="round" stroke-linejoin="round"/>
<path d="M20.5833 4.75H17.4167C15.6678 4.75 14.25 6.16776 14.25 7.91667C14.25 9.66557 15.6678 11.0833 17.4167 11.0833H20.5833C22.3322 11.0833 23.75 9.66557 23.75 7.91667C23.75 6.16776 22.3322 4.75 20.5833 4.75Z" stroke="#D3EFF4" stroke-width="2" stroke-linecap="round" stroke-linejoin="round"/>
<path d="M24.75 20.5C23.0831 23.4169 21 24.875 18.5 24.875C16 24.875 13.9169 23.4169 12.25 20.5C13.9169 17.5831 16 16.125 18.5 16.125C21 16.125 23.0831 17.5831 24.75 20.5Z" fill="#10A3BF" stroke="#D3EFF4" stroke-linecap="round" stroke-linejoin="round"/>
<path d="M18.5 23C19.8807 23 21 21.8807 21 20.5C21 19.1193 19.8807 18 18.5 18C17.1193 18 16 19.1193 16 20.5C16 21.8807 17.1193 23 18.5 23Z" fill="#10A3BF" stroke="#D3EFF4" stroke-linecap="round" stroke-linejoin="round"/>
</svg>
