
<svg width="22" height="22" viewBox="0 0 22 22" fill="none" xmlns="http://www.w3.org/2000/svg">
<path d="M17.4165 8.25H8.24984C7.23732 8.25 6.4165 9.07081 6.4165 10.0833V15.5833C6.4165 16.5959 7.23732 17.4167 8.24984 17.4167H17.4165C18.429 17.4167 19.2498 16.5959 19.2498 15.5833V10.0833C19.2498 9.07081 18.429 8.25 17.4165 8.25Z" stroke="#39364F" stroke-linecap="round" stroke-linejoin="round"/>
<path d="M12.8333 14.6667C13.8459 14.6667 14.6667 13.8459 14.6667 12.8333C14.6667 11.8208 13.8459 11 12.8333 11C11.8208 11 11 11.8208 11 12.8333C11 13.8459 11.8208 14.6667 12.8333 14.6667Z" stroke="#39364F" stroke-linecap="round" stroke-linejoin="round"/>
<path d="M15.5833 8.25V6.41667C15.5833 5.93044 15.3902 5.46412 15.0464 5.12031C14.7025 4.77649 14.2362 4.58334 13.75 4.58334H4.58333C4.0971 4.58334 3.63079 4.77649 3.28697 5.12031C2.94315 5.46412 2.75 5.93044 2.75 6.41667V11.9167C2.75 12.4029 2.94315 12.8692 3.28697 13.213C3.63079 13.5568 4.0971 13.75 4.58333 13.75H6.41667" stroke="#39364F" stroke-linecap="round" stroke-linejoin="round"/>
</svg>
