
<svg width="22" height="22" viewBox="0 0 22 22" fill="none" xmlns="http://www.w3.org/2000/svg">
<path d="M18.4165 7.25H9.24984C8.23732 7.25 7.4165 8.07081 7.4165 9.08333V14.5833C7.4165 15.5959 8.23732 16.4167 9.24984 16.4167H18.4165C19.429 16.4167 20.2498 15.5959 20.2498 14.5833V9.08333C20.2498 8.07081 19.429 7.25 18.4165 7.25Z" fill="#FFB2B2"/>
<path d="M16.5833 7.24999V5.41666C16.5833 4.93043 16.3902 4.46412 16.0464 4.1203C15.7025 3.77648 15.2362 3.58333 14.75 3.58333H5.58333C5.0971 3.58333 4.63079 3.77648 4.28697 4.1203C3.94315 4.46412 3.75 4.93043 3.75 5.41666V10.9167C3.75 11.4029 3.94315 11.8692 4.28697 12.213C4.63079 12.5568 5.0971 12.75 5.58333 12.75H7.41667" fill="#FFB2B2"/>
<path d="M17.4165 8.25H8.24984C7.23732 8.25 6.4165 9.07081 6.4165 10.0833V15.5833C6.4165 16.5959 7.23732 17.4167 8.24984 17.4167H17.4165C18.429 17.4167 19.2498 16.5959 19.2498 15.5833V10.0833C19.2498 9.07081 18.429 8.25 17.4165 8.25Z" stroke="#39364F" stroke-linecap="round" stroke-linejoin="round"/>
<path d="M12.8333 14.6667C13.8459 14.6667 14.6667 13.8459 14.6667 12.8333C14.6667 11.8208 13.8459 11 12.8333 11C11.8208 11 11 11.8208 11 12.8333C11 13.8459 11.8208 14.6667 12.8333 14.6667Z" stroke="#39364F" stroke-linecap="round" stroke-linejoin="round"/>
<path d="M15.5833 8.25V6.41667C15.5833 5.93044 15.3902 5.46412 15.0464 5.12031C14.7025 4.77649 14.2362 4.58334 13.75 4.58334H4.58333C4.0971 4.58334 3.63079 4.77649 3.28697 5.12031C2.94315 5.46412 2.75 5.93044 2.75 6.41667V11.9167C2.75 12.4029 2.94315 12.8692 3.28697 13.213C3.63079 13.5568 4.0971 13.75 4.58333 13.75H6.41667" stroke="#39364F" stroke-linecap="round" stroke-linejoin="round"/>
</svg>
