<svg width="22" height="22" viewBox="0 0 22 22" fill="none" xmlns="http://www.w3.org/2000/svg">
<path d="M11 19.25C15.5563 19.25 19.25 15.5563 19.25 11C19.25 6.44365 15.5563 2.75 11 2.75C6.44365 2.75 2.75 6.44365 2.75 11C2.75 15.5563 6.44365 19.25 11 19.25Z" stroke="#A7A5A5" stroke-linecap="round" stroke-linejoin="round"/>
<path d="M8.25 9.16666H8.25917" stroke="#A7A5A5" stroke-linecap="round" stroke-linejoin="round"/>
<path d="M13.75 9.16666H13.7592" stroke="#A7A5A5" stroke-linecap="round" stroke-linejoin="round"/>
<path d="M8.7085 13.75C9.00722 14.0549 9.36377 14.2971 9.75728 14.4624C10.1508 14.6278 10.5733 14.713 11.0002 14.713C11.427 14.713 11.8495 14.6278 12.243 14.4624C12.6366 14.2971 12.9931 14.0549 13.2918 13.75" stroke="#A7A5A5" stroke-linecap="round" stroke-linejoin="round"/>
<path d="M10.9998 2.75C10.5136 2.75 10.0473 2.94315 9.70348 3.28697C9.35966 3.63079 9.1665 4.0971 9.1665 4.58333C9.1665 5.06956 9.35966 5.53588 9.70348 5.8797C10.0473 6.22351 10.5136 6.41667 10.9998 6.41667" stroke="#A7A5A5" stroke-linecap="round" stroke-linejoin="round"/>
</svg>
