
<svg width="22" height="22" viewBox="0 0 22 22" fill="none" xmlns="http://www.w3.org/2000/svg">
<path d="M15.9167 7.66667V4.91667C15.9167 4.67355 15.8201 4.44039 15.6482 4.26849C15.4763 4.09658 15.2431 4 15 4H5.83333C5.3471 4 4.88079 4.19315 4.53697 4.53697C4.19315 4.88079 4 5.3471 4 5.83333M4 5.83333C4 6.31956 4.19315 6.78588 4.53697 7.1297C4.88079 7.47351 5.3471 7.66667 5.83333 7.66667H16.8333C17.0764 7.66667 17.3096 7.76324 17.4815 7.93515C17.6534 8.10706 17.75 8.34022 17.75 8.58333V10.5M4 5.83333V16.8333C4 17.3196 4.19315 17.7859 4.53697 18.1297C4.88079 18.4735 5.3471 18.6667 5.83333 18.6667H16.8333C17.0764 18.6667 17.3096 18.5701 17.4815 18.3982C17.6534 18.2263 17.75 17.9931 17.75 17.75V15" stroke="#39364F" stroke-linecap="round" stroke-linejoin="round"/>
<path d="M18.3335 11V14.6667H14.6668C14.1806 14.6667 13.7143 14.4735 13.3705 14.1297C13.0267 13.7859 12.8335 13.3196 12.8335 12.8333C12.8335 12.3471 13.0267 11.8808 13.3705 11.537C13.7143 11.1932 14.1806 11 14.6668 11H18.3335Z" stroke="#39364F" stroke-linecap="round" stroke-linejoin="round"/>
</svg>
