<svg width="22" height="22" viewBox="0 0 22 22" fill="none" xmlns="http://www.w3.org/2000/svg">
<path d="M10.0835 19.25L9.16683 15.5833L7.3335 12.8333V7.33331" stroke="#A7A5A5" stroke-linecap="round" stroke-linejoin="round"/>
<path d="M4.58317 12.8333L3.6665 10.0833L7.33317 7.33331L10.0832 9.16665L12.8332 9.62498" stroke="#A7A5A5" stroke-linecap="round" stroke-linejoin="round"/>
<path d="M7.33317 4.58333C7.83943 4.58333 8.24984 4.17293 8.24984 3.66667C8.24984 3.16041 7.83943 2.75 7.33317 2.75C6.82691 2.75 6.4165 3.16041 6.4165 3.66667C6.4165 4.17293 6.82691 4.58333 7.33317 4.58333Z" stroke="#A7A5A5" stroke-linecap="round" stroke-linejoin="round"/>
<path d="M6.41683 15.5833L4.5835 19.25" stroke="#A7A5A5" stroke-linecap="round" stroke-linejoin="round"/>
<path d="M14.6665 19.25V11.4583C14.6665 11.0936 14.8114 10.7439 15.0692 10.486C15.3271 10.2282 15.6768 10.0833 16.0415 10.0833C16.4062 10.0833 16.7559 10.2282 17.0138 10.486C17.2716 10.7439 17.4165 11.0936 17.4165 11.4583V11.9166" stroke="#A7A5A5" stroke-linecap="round" stroke-linejoin="round"/>
</svg>
