
<svg width="196" height="298" viewBox="0 0 196 298" fill="none" xmlns="http://www.w3.org/2000/svg">
<path d="M73.4039 105.676C73.4039 105.676 23.0571 191.959 6.20942 277.321L0 280.973L29.6934 290.812C29.6934 290.812 95.4701 191.599 99.4012 179.004C103.332 166.409 96.5933 105.676 96.5933 105.676" fill="#FFE68D"/>
<path d="M86.4418 144.704C86.4418 144.704 78.3622 186.127 80.5752 211.992C89.0516 198.358 95.9347 186.779 98.5011 181.222L86.4418 144.704Z" fill="#39364F"/>
<path d="M106.523 19.7193C107.26 19.7193 107.966 19.4269 108.486 18.9063C109.007 18.3858 109.299 17.6798 109.299 16.9436" stroke="#39364F"/>
<path d="M104.121 32.6865L107.829 33.5979" stroke="#39364F"/>
<path d="M87.9685 17.1689C87.9685 17.1689 83.9817 28.8588 89.3245 32.6864C94.6672 36.5141 110.554 34.284 106.244 18.5957" stroke="#39364F"/>
<path d="M94.8945 23.096C96.3041 23.7444 97.9725 23.1274 98.6209 21.7178" stroke="#39364F" stroke-linecap="round" stroke-linejoin="round"/>
<path d="M86.5391 7.03564C86.5391 7.03564 87.886 12.8274 100.188 9.38648C100.188 9.38648 100.932 12.5409 103.049 12.6841C105.167 12.8274 105.079 14.9449 105.079 14.9449" stroke="#39364F"/>
<path d="M87.972 12.6842C87.972 12.6842 75.1305 1.60671 90.2132 1.04509C105.296 0.483478 113.462 5.16034 107.912 15.4895" stroke="#39364F"/>
<path d="M73.4024 62.3069V105.676L134.84 120.777V72.4752C134.84 55.3483 123.148 40.4342 106.516 36.3464H106.516C98.5401 34.386 90.1056 36.2009 83.6418 41.2684C77.1779 46.3359 73.4023 54.0935 73.4023 62.3069L73.4024 62.3069Z" fill="#BDB0EB"/>
<path d="M134.843 120.776L86.5421 108.905C86.5421 108.905 83.2919 226.322 102.363 290.09L99.1907 296.455H130.851C130.851 296.455 137.15 146.466 134.843 120.776Z" fill="#FFE68D"/>
<path d="M86.5421 108.905C86.5421 108.905 83.2919 226.322 102.363 290.09" stroke="#39364F"/>
<path d="M115.578 39.8806C115.578 39.8806 152.532 61.6997 151.409 98.0176C150.286 134.335 124.077 148.938 124.077 148.938" stroke="#39364F"/>
<path d="M114.344 128.906C114.344 128.906 119.773 148.75 128.946 152.869" stroke="#39364F"/>
<path d="M109.297 76.5513L128.943 100.514L114.833 130.548" stroke="#39364F"/>
<path d="M116.079 127.9L128.944 100.514L113.879 82.1384C113.879 82.1384 123.058 109.607 116.079 127.9Z" fill="#39364F"/>
<path d="M80.1937 44.5031L53.8644 65.3557C53.8644 65.3557 23.5152 26.6844 16.8098 24.6326C10.1043 22.5808 1.94141 26.8791 1.94141 26.8791V29.4186L9.70561 30.8303C9.70561 30.8303 8.56162 39.867 13.5025 44.102C13.5025 44.102 28.8196 100.088 51.8172 100.264C67.5425 100.384 73.4054 96.0204 73.4054 96.0204" stroke="#39364F"/>
<path d="M29.8828 297.391H195.354" stroke="#39364F"/>
</svg>
