
<svg width="141" height="274" viewBox="0 0 141 274" fill="none" xmlns="http://www.w3.org/2000/svg">
<path d="M94.3961 99.3404L73.7331 99.1833C73.7331 99.1833 50.6603 212.695 57.1203 260.508L49.5446 265.292L83.4793 273.1L104.483 178.081L94.3961 99.3404Z" fill="#3A8D9D"/>
<path d="M81.7973 192.541C81.6669 209.699 85.1991 225.512 91.2248 238.067L104.485 178.081L99.0526 135.679C88.6847 149.081 81.972 169.552 81.7973 192.541Z" fill="#39364F"/>
<path d="M82.5144 98.4128L129.744 96.0349L129.355 147.215L128.396 273.442L94.7127 273.186L98.6895 266.186L82.5144 98.4128Z" fill="#3A8D9D"/>
<path d="M98.6866 266.186L82.5117 98.4126" stroke="#37364F"/>
<path d="M86.8281 20.8516C86.7911 25.727 90.0872 29.9978 94.8129 31.1975L104.828 33.7399" stroke="#37364F"/>
<path d="M103.752 18.4954L103.732 21.0848C105.129 21.0954 106.27 19.9717 106.281 18.5749C106.281 18.4973 106.278 18.4205 106.272 18.3446C106.142 16.773 103.764 16.9184 103.752 18.4954Z" fill="#EDEEEF"/>
<path d="M103.731 21.0848C105.128 21.0954 106.269 19.9717 106.279 18.5749" stroke="#37364F"/>
<path d="M93.8281 22.9275C94.1398 23.244 94.5644 23.4236 95.0086 23.427C95.4528 23.4304 95.8801 23.2572 96.1965 22.9455" stroke="#37364F"/>
<path d="M86.8515 17.8184C86.8515 17.8184 93.5692 14.9695 95.3891 11.1878L95.3697 13.7465C95.3697 13.7465 98.6591 13.0038 99.7369 11.4767C99.7369 11.4767 100.255 17.1527 103.87 17.9478" stroke="#37364F"/>
<path d="M104.884 26.2005C104.884 26.2005 113.403 19.982 109.467 10.4845C105.53 0.986964 95.2747 3.6384 86.0571 4.42127C81.2012 4.83369 75.1075 3.03532 70.4279 1.241C66.0032 -0.46779 60.9822 0.991791 58.1632 4.8063V4.8063C58.1632 4.8063 50.1739 1.07795 48.2301 9.9337C46.2864 18.7894 65.3184 35.4387 90.9267 29.3002" stroke="#37364F"/>
<path d="M74.0336 59.6665L73.7332 99.1834L129.61 113.368L129.944 69.357C130.063 53.7515 119.512 40.0811 104.386 36.2412L104.386 36.2412C97.1319 34.3997 89.434 35.995 83.5092 40.5676C77.5844 45.1402 74.0905 52.1826 74.0336 59.6665L74.0336 59.6665Z" fill="#BDB0EB"/>
<path d="M89.0435 64.863L27.4536 89.7924C20.9742 92.415 15.2711 96.6476 10.8841 102.09L1.74039 113.432L19.7076 113.56C25.0355 113.597 30.3199 112.598 35.2663 110.618L97.4424 85.7274C100.764 84.3976 103.255 81.5663 104.151 78.102C105.046 74.6378 104.24 70.9541 101.979 68.1808L101.979 68.1808C98.8615 64.3574 93.6163 63.0121 89.0435 64.863Z" fill="#FFE68D"/>
<path d="M1.74092 113.432L19.7081 113.56C25.0361 113.597 30.3204 112.598 35.2669 110.618L97.4429 85.7275" stroke="#37364F"/>
<path d="M119.445 44.5695C119.445 44.5695 139.848 59.6738 140.284 92.0887C140.72 124.504 73.8902 78.79 73.8902 78.79C73.8902 78.79 69.4199 78.9669 67.9218 74.0736C67.9218 74.0736 65.0233 73.8849 65.3739 72.6388C65.7246 71.3926 73.6074 66.6761 86.7367 67.4583C99.8659 68.2404 122.148 76.7686 122.148 76.7686" stroke="#37364F"/>
<path d="M1.73968 113.432L13.0382 113.512C12.4778 110.191 11.0907 107.065 9.0045 104.42L1.73968 113.432Z" fill="#39364F"/>
<path d="M79.666 44.2671C79.666 44.2671 68.0191 58.2168 59.474 76.8317" stroke="#37364F"/>
<path d="M47.375 105.77C47.375 105.77 59.9647 114.28 72.6558 109.438" stroke="#37364F"/>
<path d="M35.6355 87.3698C35.6355 87.3698 36.7714 78.2903 42.8585 79.6914C48.9457 81.0926 48.3933 83.3487 47.544 83.5248C46.6947 83.701 43.0216 83.4904 43.0216 83.4904L40.7739 84.4002" stroke="#37364F"/>
</svg>
