
<svg width="22" height="22" viewBox="0 0 22 22" fill="none" xmlns="http://www.w3.org/2000/svg">
<path d="M4.58333 14.6667H3.66667C3.16041 14.6667 2.75 15.0771 2.75 15.5833V18.3333C2.75 18.8396 3.16041 19.25 3.66667 19.25H4.58333C5.08959 19.25 5.5 18.8396 5.5 18.3333V15.5833C5.5 15.0771 5.08959 14.6667 4.58333 14.6667Z" stroke="#39364F" stroke-linecap="round" stroke-linejoin="round"/>
<path d="M5.5 18.3333C5.5 18.5764 5.59658 18.8096 5.76849 18.9815C5.94039 19.1534 6.17355 19.25 6.41667 19.25H9.85967C10.0569 19.25 10.2488 19.1864 10.407 19.0687C10.5652 18.9509 10.6812 18.7853 10.7378 18.5964L11.8378 15.8464C11.9203 15.5687 11.9597 15.2689 11.7865 15.0361C11.6142 14.8032 11.2897 14.6667 11 14.6667H9.16667V12.4052C9.16656 12.1889 9.09688 11.9784 8.96791 11.8047C8.83895 11.631 8.65755 11.5034 8.45049 11.4407C8.24344 11.378 8.02171 11.3836 7.81807 11.4566C7.61443 11.5296 7.43966 11.6661 7.31958 11.8461L5.5 14.6667V18.3333V18.3333Z" stroke="#39364F" stroke-linecap="round" stroke-linejoin="round"/>
<path d="M12.8335 2.75V6.41667C12.8335 6.65978 12.9301 6.89294 13.102 7.06485C13.2739 7.23676 13.507 7.33333 13.7502 7.33333H17.4168" stroke="#39364F" stroke-linecap="round" stroke-linejoin="round"/>
<path d="M4.5835 11.0917V4.58333C4.5835 4.0971 4.77665 3.63079 5.12047 3.28697C5.46428 2.94315 5.9306 2.75 6.41683 2.75H12.8335L17.4168 7.33333V17.4167C17.4168 17.9029 17.2237 18.3692 16.8799 18.713C16.536 19.0568 16.0697 19.25 15.5835 19.25H13.4752" stroke="#39364F" stroke-linecap="round" stroke-linejoin="round"/>
</svg>
