
<svg width="22" height="22" viewBox="0 0 22 22" fill="none" xmlns="http://www.w3.org/2000/svg">
<path d="M5.58333 13.6667H4.66667C4.16041 13.6667 3.75 14.0771 3.75 14.5833V17.3333C3.75 17.8396 4.16041 18.25 4.66667 18.25H5.58333C6.08959 18.25 6.5 17.8396 6.5 17.3333V14.5833C6.5 14.0771 6.08959 13.6667 5.58333 13.6667Z" fill="#FFD447"/>
<path d="M6.5 17.3333C6.5 17.5764 6.59658 17.8096 6.76849 17.9815C6.94039 18.1534 7.17355 18.25 7.41667 18.25H10.8597C11.0569 18.25 11.2488 18.1864 11.407 18.0687C11.5652 17.9509 11.6812 17.7853 11.7378 17.5964L12.8378 14.8464C12.9203 14.5687 12.9598 14.2689 12.7865 14.0361C12.6142 13.8032 12.2897 13.6667 12 13.6667H10.1667V11.4052C10.1666 11.1889 10.0969 10.9784 9.96791 10.8047C9.83895 10.631 9.65755 10.5034 9.45049 10.4407C9.24344 10.378 9.02171 10.3836 8.81807 10.4566C8.61443 10.5296 8.43966 10.6661 8.31958 10.8461L6.5 13.6667V17.3333Z" fill="#FFD447"/>
<path d="M5.5835 10.0917V3.58333C5.5835 3.0971 5.77665 2.63079 6.12047 2.28697C6.46428 1.94315 6.9306 1.75 7.41683 1.75H13.8335L18.4168 6.33333V16.4167C18.4168 16.9029 18.2237 17.3692 17.8799 17.713C17.536 18.0568 17.0697 18.25 16.5835 18.25H14.4752" fill="#FFD447"/>
<path d="M4.58333 14.6667H3.66667C3.16041 14.6667 2.75 15.0771 2.75 15.5833V18.3333C2.75 18.8396 3.16041 19.25 3.66667 19.25H4.58333C5.08959 19.25 5.5 18.8396 5.5 18.3333V15.5833C5.5 15.0771 5.08959 14.6667 4.58333 14.6667Z" stroke="#39364F" stroke-linecap="round" stroke-linejoin="round"/>
<path d="M5.5 18.3333C5.5 18.5764 5.59658 18.8096 5.76849 18.9815C5.94039 19.1534 6.17355 19.25 6.41667 19.25H9.85967C10.0569 19.25 10.2488 19.1864 10.407 19.0687C10.5652 18.9509 10.6812 18.7853 10.7378 18.5964L11.8378 15.8464C11.9203 15.5687 11.9597 15.2689 11.7865 15.0361C11.6142 14.8032 11.2897 14.6667 11 14.6667H9.16667V12.4052C9.16656 12.1889 9.09688 11.9784 8.96791 11.8047C8.83895 11.631 8.65755 11.5034 8.45049 11.4407C8.24344 11.378 8.02171 11.3836 7.81807 11.4566C7.61443 11.5296 7.43966 11.6661 7.31958 11.8461L5.5 14.6667V18.3333V18.3333Z" stroke="#39364F" stroke-linecap="round" stroke-linejoin="round"/>
<path d="M12.8335 2.75V6.41667C12.8335 6.65978 12.9301 6.89294 13.102 7.06485C13.2739 7.23676 13.507 7.33333 13.7502 7.33333H17.4168" stroke="#39364F" stroke-linecap="round" stroke-linejoin="round"/>
<path d="M4.5835 11.0917V4.58333C4.5835 4.0971 4.77665 3.63079 5.12047 3.28697C5.46428 2.94315 5.9306 2.75 6.41683 2.75H12.8335L17.4168 7.33333V17.4167C17.4168 17.9029 17.2237 18.3692 16.8799 18.713C16.536 19.0568 16.0697 19.25 15.5835 19.25H13.4752" stroke="#39364F" stroke-linecap="round" stroke-linejoin="round"/>
</svg>
