
<svg width="150" height="284" viewBox="0 0 150 284" fill="none" xmlns="http://www.w3.org/2000/svg">
<path d="M7.18228 47.153L32.347 45.4912C34.2462 56.4117 25.9765 89.3303 25.9765 89.3303L6.23267 72.5551C15.7288 55.4621 7.18228 47.153 7.18228 47.153Z" fill="#FFB2B2"/>
<path d="M41.4664 101.914C41.4664 101.914 -11.7195 210.182 54.909 215.138C121.537 220.093 140.259 162.826 140.259 162.826L149.07 158.678L121.537 140.249L84.1737 158.678L71.8978 103.25" fill="#FFB2B2"/>
<path d="M69.697 145.082C74.395 145.082 78.8242 147.625 82.7211 152.12L84.1736 158.678L86.5829 157.49C93.4697 168.886 97.9277 187.08 97.9277 207.578C97.9277 207.844 97.9247 208.108 97.9232 208.373C86.5209 213.464 72.3588 216.436 54.9089 215.138C49.7661 214.755 45.3391 213.756 41.5444 212.239C41.4931 210.7 41.4671 209.147 41.4663 207.578C41.4663 173.062 54.1056 145.082 69.697 145.082Z" fill="#39364F"/>
<path d="M50.9687 104.249C50.9687 104.249 43.78 221.581 64.0838 277.133L59.8426 283.364H95.9552C95.9552 283.364 99.9004 134.125 99.9004 101.914L50.9687 104.249Z" fill="#FFB2B2"/>
<path d="M80.0983 20.1598C81.5563 20.1598 82.7383 18.9778 82.7383 17.5198" stroke="#39364F" stroke-linecap="round" stroke-linejoin="round"/>
<path d="M69.3475 23.171C70.0562 23.171 70.7358 22.8895 71.2369 22.3884C71.738 21.8873 72.0195 21.2077 72.0195 20.499" stroke="#39364F" stroke-linecap="round" stroke-linejoin="round"/>
<path d="M81.3428 33.3597L62.4532 28.717V12" stroke="#39364F" stroke-linecap="round" stroke-linejoin="round"/>
<path d="M79.4121 16.7061C79.4121 16.7061 70.5095 12.6702 67.8981 9.22791V11.6019C67.8981 11.6019 63.0907 9.82141 61.9036 7.74414" stroke="#39364F" stroke-linecap="round" stroke-linejoin="round"/>
<path d="M62.4531 11.8987C62.4531 11.8987 58.2834 10.1182 59.411 6.26042C60.5387 2.40262 69.3475 -0.564911 75.9105 1.27496C75.9105 1.27496 95.2026 5.04373 81.3427 25.1636" stroke="#39364F" stroke-linecap="round" stroke-linejoin="round"/>
<path d="M41.4663 60.6653V101.914L99.9004 116.276V70.3364C99.9004 54.0469 88.7797 39.862 72.9611 35.9741H72.961C65.375 34.1096 57.3529 35.8357 51.2051 40.6555C45.0573 45.4752 41.4663 52.8535 41.4663 60.6653V60.6653Z" fill="#B0D1D8"/>
<path d="M95.9551 283.364C95.9551 283.364 99.9004 134.125 99.9004 101.914" stroke="#39364F" stroke-linecap="round" stroke-linejoin="round"/>
<path d="M50.969 104.25C50.969 104.25 43.7802 221.581 64.084 277.133L59.8429 283.364" stroke="#39364F" stroke-linecap="round" stroke-linejoin="round"/>
<path d="M85.2145 41.6348C85.2145 41.6348 110.927 56.4118 106.417 88.2238C101.906 120.036 41.131 108.166 26.1746 90.5978L24.9876 83.0009C24.9876 83.0009 16.5434 72.6644 21.359 74.8651C26.1746 77.0659 74.817 80.6269 74.817 80.6269L74.0751 69.469" stroke="#39364F" stroke-linecap="round" stroke-linejoin="round"/>
<path d="M48.6025 42.999C48.6025 42.999 33.3618 54.9769 29.056 76.3484" stroke="#39364F" stroke-linecap="round" stroke-linejoin="round"/>
<path d="M38.8291 108.095C38.8291 108.095 15.4913 113.745 5.28294 87.2741C-3.2738 65.0863 3.38372 54.5125 6.46995 53.8003C9.55619 53.0881 10.5058 57.3613 10.5058 57.3613" stroke="#39364F" stroke-linecap="round" stroke-linejoin="round"/>
</svg>
