
<svg width="140" height="306" viewBox="0 0 140 306" fill="none" xmlns="http://www.w3.org/2000/svg">
<path d="M49.9951 222.273V294.69L45.2163 304.982H77.9832L88.5928 203.526L49.9951 222.273Z" fill="#E2E2E2"/>
<path d="M57.2754 116.773L108.144 113.824V168.971V304.982H73.7563L77.9833 297.407L57.2754 116.773Z" fill="#EDEEEF"/>
<path d="M79.2679 46.9082L68.4564 44.2509C63.3549 42.9971 59.7686 38.4224 59.7686 33.1691V28.5555" stroke="#39364F" stroke-linecap="round" stroke-linejoin="round"/>
<path d="M77.9839 33.2822C79.489 33.2822 80.7091 32.0621 80.7091 30.557" stroke="#39364F" stroke-linecap="round" stroke-linejoin="round"/>
<path d="M67.3257 35.3487C67.6641 35.6871 68.1231 35.8772 68.6017 35.8772C69.0803 35.8772 69.5392 35.6871 69.8777 35.3487" stroke="#39364F" stroke-linecap="round" stroke-linejoin="round"/>
<path d="M77.9842 29.8356C76.6699 29.8356 75.2549 26.8949 74.7954 23.2189C74.3359 19.5429 68.5462 19.9105 64.5027 19.6348C60.4591 19.3591 60.1592 23.8234 60.1592 23.8234C60.1592 24.8417 60.1592 27.2809 60.1592 28.8909" stroke="#39364F" stroke-linecap="round" stroke-linejoin="round"/>
<path d="M59.7694 29.1251C59.7694 29.1251 45.4525 3.18482 70.7843 1.34683C96.1162 -0.491159 108.037 33.0828 79.347 38.2291" stroke="#39364F" stroke-linecap="round" stroke-linejoin="round"/>
<path d="M108.144 75.095V117.675L47.8237 132.501V85.0782C47.8237 68.263 59.3033 53.6203 75.6325 49.6069H75.6325C83.4635 47.6822 91.7445 49.4641 98.0907 54.4394C104.437 59.4146 108.144 67.031 108.144 75.095V75.095Z" fill="#BDB0EB"/>
<path d="M108.144 117.675L47.8237 132.501V225.766L139.497 211.328L108.144 117.675Z" fill="#FFE68D"/>
<path d="M73.7565 304.982L77.9835 297.407L66.334 195.788" stroke="#39364F" stroke-linecap="round" stroke-linejoin="round"/>
<path d="M99.493 55.6222C99.493 55.6222 128.294 80.5028 109.424 115.302C90.5544 150.101 29.7783 100.353 29.0431 96.4321C28.3079 92.511 34.6796 91.5308 40.071 94.4716C40.071 94.4716 39.3358 90.4586 42.2766 91.6074C45.2174 92.7561 46.6878 96.187 46.6878 96.187L88.1038 97.9025L82.71 75.1114" stroke="#39364F" stroke-linecap="round" stroke-linejoin="round"/>
<path d="M60.4734 96.7579L42.2762 48.8357L0.615234 60.1625L26.3471 117.675L49.3694 113.01" stroke="#39364F" stroke-linecap="round" stroke-linejoin="round"/>
<path d="M56.0093 117.01C56.0093 117.01 79.2473 147.151 113.604 133.983L108.032 117.608C96.8444 134.255 74.1975 127.269 56.0093 117.01Z" fill="#39364F"/>
<path d="M60.1588 57.7096L49.3408 67.4397" stroke="#39364F" stroke-linecap="round" stroke-linejoin="round"/>
<path d="M10.4825 82.2168C10.4825 82.2168 3.67846 107.766 19.8528 118.61C36.0271 129.455 47.8236 121.367 47.8236 121.367" stroke="#39364F" stroke-linecap="round" stroke-linejoin="round"/>
</svg>
