
<svg width="22" height="22" viewBox="0 0 22 22" fill="none" xmlns="http://www.w3.org/2000/svg">
<path d="M7.41667 10.0833C9.44171 10.0833 11.0833 8.44171 11.0833 6.41667C11.0833 4.39162 9.44171 2.75 7.41667 2.75C5.39162 2.75 3.75 4.39162 3.75 6.41667C3.75 8.44171 5.39162 10.0833 7.41667 10.0833Z" fill="#FFB2B2"/>
<path d="M9.25 15.5833V19.25" stroke="#FFB2B2" stroke-linecap="round" stroke-linejoin="round"/>
<path d="M16.5835 12.8333V19.25" stroke="#FFB2B2" stroke-linecap="round" stroke-linejoin="round"/>
<path d="M12.9165 11.9167V19.25" stroke="#FFB2B2" stroke-linecap="round" stroke-linejoin="round"/>
<path d="M20.25 11V19.25" stroke="#FFB2B2" stroke-linecap="round" stroke-linejoin="round"/>
<path d="M6.41667 10.0833C8.44171 10.0833 10.0833 8.44171 10.0833 6.41667C10.0833 4.39162 8.44171 2.75 6.41667 2.75C4.39162 2.75 2.75 4.39162 2.75 6.41667C2.75 8.44171 4.39162 10.0833 6.41667 10.0833Z" stroke="#39364F" stroke-linecap="round" stroke-linejoin="round"/>
<path d="M6.4165 2.75V6.41667H10.0832" stroke="#39364F" stroke-linecap="round" stroke-linejoin="round"/>
<path d="M8.25 15.5833V19.25" stroke="#39364F" stroke-linecap="round" stroke-linejoin="round"/>
<path d="M15.5835 12.8333V19.25" stroke="#39364F" stroke-linecap="round" stroke-linejoin="round"/>
<path d="M11.9165 11.9167V19.25" stroke="#39364F" stroke-linecap="round" stroke-linejoin="round"/>
<path d="M19.25 11V19.25" stroke="#39364F" stroke-linecap="round" stroke-linejoin="round"/>
</svg>
