<svg width="22" height="23" viewBox="0 0 22 23" fill="none" xmlns="http://www.w3.org/2000/svg">
<path d="M10.0833 6.91667C11.0959 6.91667 11.9167 6.09586 11.9167 5.08333C11.9167 4.07081 11.0959 3.25 10.0833 3.25C9.07081 3.25 8.25 4.07081 8.25 5.08333C8.25 6.09586 9.07081 6.91667 10.0833 6.91667Z" stroke="#A7A5A5" stroke-linecap="round" stroke-linejoin="round"/>
<path d="M10.0835 6.91669V14.25H13.7502L17.4168 18.8334" stroke="#A7A5A5" stroke-linecap="round" stroke-linejoin="round"/>
<path d="M10.0835 10.5833H14.6668" stroke="#A7A5A5" stroke-linecap="round" stroke-linejoin="round"/>
<path d="M6.41659 11.0417C5.7598 11.3137 5.17527 11.7347 4.70923 12.2715C4.24319 12.8084 3.90841 13.4462 3.73135 14.1347C3.55429 14.8232 3.53981 15.5434 3.68906 16.2385C3.8383 16.9335 4.14718 17.5843 4.59127 18.1394C5.03536 18.6946 5.60248 19.1388 6.24782 19.4369C6.89315 19.7351 7.599 19.8791 8.30956 19.8575C9.02012 19.8359 9.71592 19.6493 10.3419 19.3124C10.968 18.9756 11.5071 18.4978 11.9166 17.9167" stroke="#A7A5A5" stroke-linecap="round" stroke-linejoin="round"/>
</svg>
