
<svg width="216" height="284" viewBox="0 0 216 284" fill="none" xmlns="http://www.w3.org/2000/svg">
<path d="M200.633 283.097H114.397" stroke="#39364F"/>
<rect width="51.4429" height="18.4485" rx="8.98869" transform="matrix(-1 0 0 1 183.902 148.623)" fill="#BDB0EB"/>
<path d="M141.681 167.071H174.676" stroke="#39364F"/>
<path d="M158.181 167.071V283.793" stroke="#39364F"/>
<path d="M90.2307 112.79C90.2307 112.79 32.393 131.971 10.5752 197.956L0.996628 202.213L31.8608 211.792L81.8821 157.847L117.23 134.317" fill="#E2E2E2"/>
<path d="M68.9477 226.674C53.5559 121.504 106.897 117.326 106.897 117.326L131.551 157.847L107.131 156.799L100.44 238.161L64.2377 234.834L68.9477 226.674Z" fill="#EDEEEF"/>
<path d="M68.9457 226.674C53.554 121.504 106.895 117.326 106.895 117.326" stroke="#39364F"/>
<path d="M119.225 103.017L177.441 117.326C177.441 117.326 181.292 161.986 119.225 157.847L85.6084 110.786L119.225 103.017Z" fill="#FFE68D"/>
<path d="M119.227 157.847L85.6101 110.787" stroke="#39364F"/>
<path d="M177.441 117.326C177.441 117.326 181.292 161.986 119.225 157.847" stroke="#39364F"/>
<path d="M128.066 21.4587C128.066 26.5289 131.528 30.944 136.451 32.1541L146.886 34.7187" stroke="#39364F"/>
<path d="M145.648 21.5677C147.101 21.5677 148.279 20.3901 148.279 18.9375" stroke="#39364F"/>
<path d="M135.359 23.5623C136.04 24.2424 137.142 24.2424 137.822 23.5623" stroke="#39364F" stroke-linecap="round" stroke-linejoin="round"/>
<path d="M127.523 12.1509L142.188 12.8604C142.188 12.8604 143.027 17.6662 145.646 18.1821" stroke="#39364F" stroke-linecap="round" stroke-linejoin="round"/>
<path d="M127.525 24.8047L120.902 22.656C120.902 22.656 121.257 -2.39499 142.544 1.38931C142.544 1.38931 156.025 1.93129 157.445 16.4772C158.864 31.0231 158.642 31.9544 158.642 31.9544L146.887 29.1803" stroke="#39364F" stroke-linecap="round" stroke-linejoin="round"/>
<path d="M119.225 61.9225V103.018L177.441 117.326V71.5575C177.441 55.3287 166.362 41.1966 150.602 37.3232H150.602C143.045 35.4656 135.052 37.1853 128.927 41.9871C122.803 46.7889 119.225 54.1397 119.225 61.9224V61.9225Z" fill="#3A8D9D"/>
<path d="M160.456 41.4038C160.456 41.4038 198.955 64.3886 212.791 98.9778C226.627 133.567 156.967 112.294 156.967 112.294C156.967 112.294 145.637 113.033 141.38 107.705L136.216 107.193L136.827 104.748L179.874 95.2875L159.913 76.9525" stroke="#39364F"/>
<path d="M179.875 95.2872L164.087 98.757C175.605 94.4977 163.327 80.0883 163.324 80.0847L179.875 95.2872Z" fill="#39364F"/>
<path d="M155.403 100.665C155.886 100.317 157.216 100.001 159.641 99.7339L155.403 100.665Z" fill="#39364F"/>
<path d="M124.219 46.809L106.893 73.0544C106.893 73.0544 101.111 41.8339 93.0695 38.9956C85.0279 36.1574 81.2436 34.7183 81.2436 34.7183L80.3433 37.5586L84.0818 41.4035C84.0818 41.4035 80.4528 49.4025 86.5246 51.2946C86.5246 51.2946 68.5524 102.342 105.172 106.265" stroke="#39364F"/>
</svg>
