<svg width="22" height="22" viewBox="0 0 22 22" fill="none" xmlns="http://www.w3.org/2000/svg">
<path d="M10.2502 10.0833C12.2752 10.0833 13.9168 8.44171 13.9168 6.41667C13.9168 4.39162 12.2752 2.75 10.2502 2.75C8.22512 2.75 6.5835 4.39162 6.5835 6.41667C6.5835 8.44171 8.22512 10.0833 10.2502 10.0833Z" fill="#BDB0EB"/>
<path d="M4.75 19.25V17.4167C4.75 16.4442 5.13631 15.5116 5.82394 14.8239C6.51157 14.1363 7.44421 13.75 8.41667 13.75H12.0833C13.0558 13.75 13.9884 14.1363 14.6761 14.8239C15.3637 15.5116 15.75 16.4442 15.75 17.4167V19.25" fill="#BDB0EB"/>
<path d="M16.6665 2.86917C17.4552 3.07111 18.1543 3.52981 18.6535 4.17295C19.1527 4.8161 19.4237 5.6071 19.4237 6.42125C19.4237 7.23541 19.1527 8.02641 18.6535 8.66955C18.1543 9.31269 17.4552 9.77139 16.6665 9.97334" fill="#BDB0EB"/>
<path d="M21.25 19.25V17.4167C21.2453 16.6074 20.9731 15.8224 20.4757 15.184C19.9782 14.5457 19.2836 14.0898 18.5 13.8875" fill="#BDB0EB"/>
<path d="M8.25016 10.0833C10.2752 10.0833 11.9168 8.44171 11.9168 6.41667C11.9168 4.39162 10.2752 2.75 8.25016 2.75C6.22512 2.75 4.5835 4.39162 4.5835 6.41667C4.5835 8.44171 6.22512 10.0833 8.25016 10.0833Z" stroke="#39364F" stroke-linecap="round" stroke-linejoin="round"/>
<path d="M2.75 19.25V17.4167C2.75 16.4442 3.13631 15.5116 3.82394 14.8239C4.51158 14.1363 5.44421 13.75 6.41667 13.75H10.0833C11.0558 13.75 11.9884 14.1363 12.6761 14.8239C13.3637 15.5116 13.75 16.4442 13.75 17.4167V19.25" stroke="#39364F" stroke-linecap="round" stroke-linejoin="round"/>
<path d="M14.6665 2.86917C15.4552 3.07111 16.1543 3.52981 16.6535 4.17295C17.1527 4.81609 17.4237 5.6071 17.4237 6.42125C17.4237 7.23541 17.1527 8.02641 16.6535 8.66955C16.1543 9.31269 15.4552 9.77139 14.6665 9.97334" stroke="#39364F" stroke-linecap="round" stroke-linejoin="round"/>
<path d="M19.25 19.25V17.4167C19.2453 16.6074 18.9731 15.8224 18.4757 15.184C17.9782 14.5457 17.2836 14.0898 16.5 13.8875" stroke="#39364F" stroke-linecap="round" stroke-linejoin="round"/>
</svg>

