<svg width="22" height="22" viewBox="0 0 22 22" fill="none" xmlns="http://www.w3.org/2000/svg">
<path d="M8.25016 10.0833C10.2752 10.0833 11.9168 8.44171 11.9168 6.41667C11.9168 4.39162 10.2752 2.75 8.25016 2.75C6.22512 2.75 4.5835 4.39162 4.5835 6.41667C4.5835 8.44171 6.22512 10.0833 8.25016 10.0833Z" stroke="#A6A5B0" stroke-linecap="round" stroke-linejoin="round"/>
<path d="M2.75 19.25V17.4167C2.75 16.4442 3.13631 15.5116 3.82394 14.8239C4.51158 14.1363 5.44421 13.75 6.41667 13.75H10.0833C11.0558 13.75 11.9884 14.1363 12.6761 14.8239C13.3637 15.5116 13.75 16.4442 13.75 17.4167V19.25" stroke="#A6A5B0" stroke-linecap="round" stroke-linejoin="round"/>
<path d="M14.6665 2.86917C15.4552 3.07111 16.1543 3.52981 16.6535 4.17296C17.1527 4.8161 17.4237 5.6071 17.4237 6.42125C17.4237 7.23541 17.1527 8.02641 16.6535 8.66955C16.1543 9.31269 15.4552 9.7714 14.6665 9.97334" stroke="#A6A5B0" stroke-linecap="round" stroke-linejoin="round"/>
<path d="M19.25 19.25V17.4167C19.2453 16.6074 18.9731 15.8224 18.4757 15.184C17.9782 14.5457 17.2836 14.0898 16.5 13.8875" stroke="#A6A5B0" stroke-linecap="round" stroke-linejoin="round"/>
</svg>
