<svg width="22" height="22" viewBox="0 0 22 22" fill="none" xmlns="http://www.w3.org/2000/svg">
<mask id="mask0" mask-type="alpha" maskUnits="userSpaceOnUse" x="0" y="0" width="22" height="22">
<rect width="22" height="22" fill="#C4C4C4"/>
</mask>
<g mask="url(#mask0)">
<path d="M11.181 14.2845C13.4069 14.2845 15.2112 12.4801 15.2112 10.2543C15.2112 8.02852 13.4069 6.22415 11.181 6.22415C8.95525 6.22415 7.15088 8.02852 7.15088 10.2543C7.15088 12.4801 8.95525 14.2845 11.181 14.2845Z" stroke="#A7A5A5" stroke-linecap="round" stroke-linejoin="round"/>
<path d="M18.4356 3L14.083 7.35258" stroke="#A7A5A5" stroke-linecap="round" stroke-linejoin="round"/>
<path d="M4 2.99999L8.35258 7.35257" stroke="#A7A5A5" stroke-linecap="round" stroke-linejoin="round"/>
<path d="M18.435 3H14.4048" stroke="#A7A5A5" stroke-linecap="round" stroke-linejoin="round"/>
<path d="M4 3.00019L4 7.03036" stroke="#A7A5A5" stroke-linecap="round" stroke-linejoin="round"/>
<path d="M18.4355 3V7.03017" stroke="#A7A5A5" stroke-linecap="round" stroke-linejoin="round"/>
<path d="M4 3.00003L8.03017 3.00003" stroke="#A7A5A5" stroke-linecap="round" stroke-linejoin="round"/>
<path d="M11.0342 14.3578V20" stroke="#A7A5A5" stroke-linecap="round" stroke-linejoin="round"/>
<path d="M8.61621 17.5819H13.4524" stroke="#A7A5A5" stroke-linecap="round" stroke-linejoin="round"/>
<path d="M5.31885 7.66541L8.73856 4.24569" stroke="#A7A5A5" stroke-linecap="round" stroke-linejoin="round"/>
</g>
</svg>
